# xmcd
#
# Track frame offsets:
#	150
#	30738
#	46912
#	73146
#	101276
#	135228
#
# Disc length: 2398 seconds
# Revision: 0
# Processed by: cddbd v1.5.2PL0 Copyright (c) Steve Scherf et al.
# Submitted via: dBpowerAMP V12.0
#
DISCID=46095c06
DTITLE=Wily Bo Walker and  E D Brayshaw - Stone Cold Beautiful
DYEAR=2015
DGENRE=Blues
TTITLE0=Storm Warning
TTITLE1=Motel Blues
TTITLE2=Loan Me A Dime
TTITLE3=I Want To Know
TTITLE4=September Red
TTITLE5=Killers On The Run
EXTD=
EXTT0=
EXTT1=
EXTT2=
EXTT3=
EXTT4=
EXTT5=
PLAYORDER=
